<svg xmlns="http://www.w3.org/2000/svg" viewBox="0 0 512 512" width="512" height="512">
  <defs>
    <linearGradient id="asameet-g" x1="0" y1="0" x2="1" y2="1">
      <stop offset="0" stop-color="#2dd4bf"/>
      <stop offset="0.55" stop-color="#0d9488"/>
      <stop offset="1" stop-color="#0f766e"/>
    </linearGradient>
    <linearGradient id="asameet-shine" x1="0" y1="0" x2="0" y2="1">
      <stop offset="0" stop-color="#ffffff" stop-opacity="0.28"/>
      <stop offset="0.5" stop-color="#ffffff" stop-opacity="0.05"/>
      <stop offset="1" stop-color="#ffffff" stop-opacity="0"/>
    </linearGradient>
  </defs>
  <!-- chat bubble -->
  <path d="M128 48 H384 Q464 48 464 128 V304 Q464 384 384 384 H240 L152 462 Q140 472 140 452 V384 H128 Q48 384 48 304 V128 Q48 48 128 48 Z" fill="url(#asameet-g)"/>
  <!-- glass shine -->
  <path d="M128 48 H384 Q464 48 464 128 V200 H48 V128 Q48 48 128 48 Z" fill="url(#asameet-shine)"/>
  <!-- the A / آ mark: peak + madda dot -->
  <path d="M256 158 L352 342 H302 L256 246 L210 342 H160 Z" fill="#ffffff"/>
  <circle cx="256" cy="118" r="22" fill="#ffffff"/>
</svg>
